<svg width="28" height="27" viewBox="0 0 28 27" fill="none" xmlns="http://www.w3.org/2000/svg">
<path d="M15.3377 19.3123V20.6874C15.3377 20.9095 15.2493 21.1223 15.0923 21.2793C14.9352 21.4365 14.7222 21.5247 14.5001 21.5247C14.2779 21.5247 14.0649 21.4365 13.9079 21.2793C13.7508 21.1223 13.6627 20.9095 13.6627 20.6874V19.2746C13.1083 19.1833 12.5781 18.9811 12.1035 18.6805C11.6289 18.3799 11.2197 17.9869 10.9002 17.5248C10.772 17.3848 10.7008 17.2019 10.7002 17.0122C10.7001 16.9039 10.7219 16.7968 10.7644 16.6972C10.807 16.5977 10.8693 16.5077 10.9476 16.4329C11.0259 16.3582 11.1185 16.2999 11.22 16.2621C11.3214 16.2241 11.4295 16.2072 11.5377 16.2123C11.645 16.2117 11.7511 16.2349 11.8484 16.2803C11.9457 16.3257 12.0317 16.3921 12.1002 16.4748C12.5 16.997 13.0427 17.392 13.6627 17.6122V14.4375C12.0002 13.775 11.1627 12.8124 11.1627 11.5499C11.1877 10.874 11.4534 10.2293 11.9117 9.73199C12.3701 9.23468 12.9911 8.91752 13.6627 8.83755V7.44993C13.6627 7.22783 13.7508 7.01465 13.9079 6.85759C14.0649 6.70053 14.2779 6.61255 14.5001 6.61255C14.7222 6.61255 14.9352 6.70053 15.0923 6.85759C15.2493 7.01465 15.3377 7.22783 15.3377 7.44993V8.82504C15.8048 8.89702 16.2525 9.06233 16.6541 9.31148C17.0558 9.56062 17.4031 9.88838 17.6751 10.2749C17.7854 10.4195 17.8505 10.5933 17.8625 10.7748C17.8659 10.8819 17.8477 10.9888 17.809 11.0888C17.7702 11.1888 17.7119 11.2798 17.6372 11.3568C17.5626 11.4336 17.4733 11.495 17.3746 11.5368C17.2759 11.5785 17.1698 11.6 17.0625 11.5999C16.9508 11.5985 16.8405 11.5733 16.7393 11.5258C16.6379 11.4784 16.5479 11.4099 16.4751 11.325C16.177 10.9526 15.7842 10.6674 15.3377 10.4998V13.3122L15.6502 13.4374C17.2376 14.0498 18.2251 14.9497 18.2251 16.3872C18.2036 17.1497 17.8935 17.8758 17.3576 18.4186C16.8218 18.9615 16.0998 19.2809 15.3377 19.3123ZM13.6627 12.5875V10.5624C13.4609 10.6355 13.2872 10.7703 13.1661 10.9475C13.0451 11.1246 12.9827 11.3354 12.9877 11.5499C12.998 11.7624 13.0662 11.968 13.1853 12.1444C13.3043 12.3208 13.4694 12.461 13.6627 12.55V12.5875ZM16.4126 16.4247C16.4126 15.8122 15.9877 15.4497 15.3377 15.1747V17.6747C15.6445 17.6315 15.9244 17.4759 16.123 17.2379C16.3216 17 16.4249 16.6968 16.4126 16.3872V16.4247Z" fill="#2447F9"/>
<path d="M14.9748 3.06274H6.74991C5.42385 3.06274 4.15218 3.5896 3.21451 4.52726C2.27685 5.46493 1.75 6.73659 1.75 8.06266V20.5625C1.75 21.8885 2.27685 23.1602 3.21451 24.0978C4.15218 25.0355 5.42385 25.5624 6.74991 25.5624H21.7497C23.0758 25.5624 24.3475 25.0355 25.2851 24.0978C26.2228 23.1602 26.7496 21.8885 26.7496 20.5625V12.975" stroke="#2447F9" stroke-width="2.5" stroke-linecap="round" stroke-linejoin="round"/>
<path d="M19.6746 8.82488L26.7494 1.75" stroke="#2447F9" stroke-width="2.5" stroke-linecap="round" stroke-linejoin="round"/>
<path d="M21.1001 1.75H26.75V7.4124" stroke="#2447F9" stroke-width="2.5" stroke-linecap="round" stroke-linejoin="round"/>
</svg>
