<svg width="191" height="31" viewBox="0 0 191 31" fill="none" xmlns="http://www.w3.org/2000/svg">
<rect x="0.387695" y="16.8096" width="10.3224" height="10.3224" rx="5.1612" fill="#2447F9"/>
<path d="M6.87772 20.3845C6.87772 20.3845 6.51186 19.8895 5.64017 19.8895C3.90771 19.8895 3.90771 21.8695 5.64017 21.8695C7.37267 21.8695 7.37271 23.8495 5.64022 23.8495C4.89772 23.8495 4.40272 23.3545 4.40272 23.3545" stroke="white" stroke-width="0.66" stroke-linecap="round" stroke-linejoin="round"/>
<path d="M5.64014 19.3946V24.3446" stroke="white" stroke-width="0.66" stroke-linecap="round" stroke-linejoin="round"/>
<path d="M21.0382 3.60959H8.13156C4.25956 3.60959 1.67822 5.54559 1.67822 10.0629V14.6577C1.67822 15.1352 2.16868 15.4321 2.5946 15.2385C3.85945 14.6577 5.3179 14.4383 6.8538 14.7093C10.2483 15.3159 12.7392 18.4652 12.6489 21.9112C12.636 22.4533 12.5585 22.9825 12.4166 23.4988C12.3133 23.8989 12.636 24.2732 13.049 24.2732H21.0382C24.9102 24.2732 27.4916 22.3372 27.4916 17.8198V10.0629C27.4916 5.54559 24.9102 3.60959 21.0382 3.60959ZM14.5849 17.1616C12.8038 17.1616 11.3582 15.716 11.3582 13.9349C11.3582 12.1538 12.8038 10.7083 14.5849 10.7083C16.366 10.7083 17.8116 12.1538 17.8116 13.9349C17.8116 15.716 16.366 17.1616 14.5849 17.1616ZM23.9422 16.5163C23.9422 17.0454 23.5034 17.4843 22.9742 17.4843C22.445 17.4843 22.0062 17.0454 22.0062 16.5163V11.3536C22.0062 10.8244 22.445 10.3856 22.9742 10.3856C23.5034 10.3856 23.9422 10.8244 23.9422 11.3536V16.5163Z" fill="#2447F9"/>
<path d="M41.2108 24.3708V5.96629H46.5324L50.6659 17.507C50.767 17.802 50.8555 18.0801 50.9313 18.3413C51.0071 18.5941 51.0704 18.8764 51.1209 19.1882H51.1968C51.2473 18.8764 51.3105 18.5899 51.3864 18.3287C51.4622 18.0674 51.5507 17.7935 51.6518 17.507L55.7979 5.96629H61.1701V24.3708H57.1883V12.8806C57.1883 12.6025 57.1925 12.2907 57.201 11.9452C57.2094 11.5997 57.2262 11.2879 57.2515 11.0098H57.163C57.1125 11.2879 57.0451 11.5997 56.9608 11.9452C56.885 12.2823 56.8007 12.5941 56.708 12.8806L52.6378 24.3708H49.2248L45.1673 12.8806C45.0746 12.6025 44.9819 12.2865 44.8892 11.9326C44.8049 11.5702 44.7459 11.2626 44.7122 11.0098H44.6111C44.6364 11.2626 44.6532 11.5702 44.6616 11.9326C44.6785 12.2865 44.6869 12.6025 44.6869 12.8806V24.3708H41.2108ZM63.7108 18.1264V17.7219C63.7108 15.7163 64.3344 14.1152 65.5816 12.9185C66.8372 11.7219 68.4805 11.1236 70.5114 11.1236C72.5423 11.1236 74.1813 11.7219 75.4285 12.9185C76.6841 14.1152 77.3119 15.7163 77.3119 17.7219V18.1264C77.3119 20.1405 76.6841 21.7458 75.4285 22.9424C74.1813 24.1306 72.5423 24.7247 70.5114 24.7247C68.4805 24.7247 66.8372 24.1306 65.5816 22.9424C64.3344 21.7458 63.7108 20.1405 63.7108 18.1264ZM67.6925 17.5323V18.316C67.6925 19.4452 67.9327 20.3174 68.413 20.9326C68.9018 21.5393 69.6012 21.8427 70.5114 21.8427C71.413 21.8427 72.1041 21.5393 72.5844 20.9326C73.0732 20.3174 73.3175 19.4452 73.3175 18.316V17.5323C73.3175 16.4115 73.0689 15.5478 72.5718 14.941C72.083 14.3343 71.3962 14.0309 70.5114 14.0309C69.6181 14.0309 68.9229 14.3343 68.4257 14.941C67.9369 15.5478 67.6925 16.4115 67.6925 17.5323ZM79.5998 24.3708V11.5028H83.3667L83.4173 13.0323H83.4805C83.8091 12.5014 84.3105 12.0674 84.9847 11.7303C85.6588 11.3933 86.4215 11.2247 87.2726 11.2247C88.5956 11.2247 89.6701 11.5997 90.4959 12.3497C91.3302 13.0913 91.7473 14.3764 91.7473 16.2051V24.3708H87.8414V16.3441C87.8414 15.5604 87.6729 15.0084 87.3358 14.6882C86.9987 14.368 86.5226 14.2079 85.9074 14.2079C85.3934 14.2079 84.9215 14.3553 84.4917 14.6503C84.0619 14.9452 83.7333 15.3497 83.5057 15.8638V24.3708H79.5998ZM93.9215 18.1264V17.7219C93.9215 15.7331 94.5324 14.1405 95.7543 12.9438C96.9762 11.7388 98.5563 11.1362 100.495 11.1362C102.441 11.1362 103.958 11.7051 105.045 12.8427C106.141 13.9719 106.688 15.5309 106.688 17.5197V18.8216H96.399V16.5337H102.846V16.3062C102.846 15.632 102.643 15.0632 102.239 14.5997C101.834 14.1362 101.249 13.9045 100.482 13.9045C99.6055 13.9045 98.9397 14.2289 98.4847 14.8778C98.038 15.5267 97.8147 16.382 97.8147 17.4438V18.2781C97.8147 19.3989 98.0591 20.2837 98.5479 20.9326C99.0366 21.573 99.7529 21.8933 100.697 21.8933C101.371 21.8933 101.944 21.7374 102.416 21.4256C102.896 21.1053 103.284 20.7261 103.579 20.2879L106.486 21.8048C106.073 22.6728 105.374 23.3806 104.388 23.9284C103.41 24.4677 102.201 24.7374 100.76 24.7374C98.6195 24.7374 96.9425 24.139 95.7291 22.9424C94.524 21.7374 93.9215 20.132 93.9215 18.1264ZM108.18 29.6166L108.218 26.8357C108.445 26.9031 108.69 26.9537 108.951 26.9874C109.221 27.0295 109.482 27.0506 109.735 27.0506C110.308 27.0506 110.805 26.8652 111.226 26.4944C111.656 26.1236 112.023 25.4073 112.326 24.3455L112.225 24.3329L107.207 11.5028H111.112L113.666 18.8469C113.767 19.1419 113.847 19.4115 113.906 19.6559C113.965 19.8919 114.024 20.1362 114.083 20.389H114.146C114.205 20.1362 114.264 19.8919 114.323 19.6559C114.382 19.4115 114.462 19.1419 114.563 18.8469L117.091 11.5028H120.593L115.347 25.6096C114.791 27.0927 114.096 28.1756 113.261 28.8581C112.436 29.5407 111.407 29.882 110.177 29.882C109.73 29.882 109.351 29.861 109.039 29.8188C108.728 29.7767 108.441 29.7093 108.18 29.6166ZM122.236 24.3708V5.96629H127.558L131.691 17.507C131.792 17.802 131.881 18.0801 131.957 18.3413C132.032 18.5941 132.096 18.8764 132.146 19.1882H132.222C132.273 18.8764 132.336 18.5899 132.412 18.3287C132.487 18.0674 132.576 17.7935 132.677 17.507L136.823 5.96629H142.195V24.3708H138.214V12.8806C138.214 12.6025 138.218 12.2907 138.226 11.9452C138.235 11.5997 138.252 11.2879 138.277 11.0098H138.188C138.138 11.2879 138.07 11.5997 137.986 11.9452C137.91 12.2823 137.826 12.5941 137.733 12.8806L133.663 24.3708H130.25L126.193 12.8806C126.1 12.6025 126.007 12.2865 125.914 11.9326C125.83 11.5702 125.771 11.2626 125.737 11.0098H125.636C125.662 11.2626 125.678 11.5702 125.687 11.9326C125.704 12.2865 125.712 12.6025 125.712 12.8806V24.3708H122.236ZM144.736 18.1264V17.7219C144.736 15.7163 145.36 14.1152 146.607 12.9185C147.862 11.7219 149.506 11.1236 151.537 11.1236C153.568 11.1236 155.207 11.7219 156.454 12.9185C157.709 14.1152 158.337 15.7163 158.337 17.7219V18.1264C158.337 20.1405 157.709 21.7458 156.454 22.9424C155.207 24.1306 153.568 24.7247 151.537 24.7247C149.506 24.7247 147.862 24.1306 146.607 22.9424C145.36 21.7458 144.736 20.1405 144.736 18.1264ZM148.718 17.5323V18.316C148.718 19.4452 148.958 20.3174 149.438 20.9326C149.927 21.5393 150.627 21.8427 151.537 21.8427C152.438 21.8427 153.129 21.5393 153.61 20.9326C154.098 20.3174 154.343 19.4452 154.343 18.316V17.5323C154.343 16.4115 154.094 15.5478 153.597 14.941C153.108 14.3343 152.421 14.0309 151.537 14.0309C150.643 14.0309 149.948 14.3343 149.451 14.941C148.962 15.5478 148.718 16.4115 148.718 17.5323ZM159.955 18.1264V17.7219C159.955 15.7163 160.579 14.1152 161.826 12.9185C163.082 11.7219 164.725 11.1236 166.756 11.1236C168.787 11.1236 170.426 11.7219 171.673 12.9185C172.928 14.1152 173.556 15.7163 173.556 17.7219V18.1264C173.556 20.1405 172.928 21.7458 171.673 22.9424C170.426 24.1306 168.787 24.7247 166.756 24.7247C164.725 24.7247 163.082 24.1306 161.826 22.9424C160.579 21.7458 159.955 20.1405 159.955 18.1264ZM163.937 17.5323V18.316C163.937 19.4452 164.177 20.3174 164.657 20.9326C165.146 21.5393 165.846 21.8427 166.756 21.8427C167.657 21.8427 168.348 21.5393 168.829 20.9326C169.318 20.3174 169.562 19.4452 169.562 18.316V17.5323C169.562 16.4115 169.313 15.5478 168.816 14.941C168.327 14.3343 167.641 14.0309 166.756 14.0309C165.862 14.0309 165.167 14.3343 164.67 14.941C164.181 15.5478 163.937 16.4115 163.937 17.5323ZM175.174 18.139V17.7346C175.174 15.8301 175.684 14.2753 176.704 13.0702C177.732 11.8567 179.072 11.25 180.723 11.25C181.575 11.25 182.308 11.3975 182.923 11.6924C183.538 11.9874 184.014 12.375 184.351 12.8553V5.27107H188.219V24.3708H184.503L184.44 22.7907H184.389C184.094 23.3132 183.622 23.7514 182.973 24.1053C182.333 24.4508 181.587 24.6236 180.736 24.6236C179.009 24.6236 177.648 24.0211 176.653 22.816C175.667 21.6025 175.174 20.0435 175.174 18.139ZM179.156 18.2528C179.156 19.2978 179.375 20.1447 179.813 20.7935C180.26 21.4424 180.93 21.7669 181.823 21.7669C182.43 21.7669 182.948 21.5983 183.378 21.2612C183.808 20.9242 184.12 20.5239 184.313 20.0604V15.7879C184.12 15.3244 183.816 14.9284 183.403 14.5997C182.99 14.2711 182.464 14.1067 181.823 14.1067C180.938 14.1067 180.273 14.4354 179.826 15.0927C179.379 15.7416 179.156 16.5843 179.156 17.6208V18.2528Z" fill="#34364A"/>
</svg>
