<svg width="45" height="39" viewBox="0 0 45 39" fill="none" xmlns="http://www.w3.org/2000/svg">
<rect x="0.868164" y="21.4594" width="16.7014" height="16.7014" rx="8.35071" fill="#2447F9"/>
<path d="M11.3688 27.2436C11.3688 27.2436 10.7769 26.4427 9.36647 26.4427C6.56339 26.4427 6.56339 29.6463 9.36647 29.6463C12.1696 29.6463 12.1697 32.8499 9.36655 32.8499C8.1652 32.8499 7.3643 32.049 7.3643 32.049" stroke="white" stroke-width="1.06787" stroke-linecap="round" stroke-linejoin="round"/>
<path d="M9.36621 25.6419V33.6509" stroke="white" stroke-width="1.06787" stroke-linecap="round" stroke-linejoin="round"/>
<path d="M34.2806 0.102112H13.3979C7.13308 0.102112 2.95654 3.23452 2.95654 10.5435V17.9777C2.95654 18.7504 3.75009 19.2307 4.43921 18.9174C6.48572 17.9777 8.84546 17.6227 11.3305 18.0612C16.8227 19.0427 20.853 24.1381 20.7068 29.7138C20.686 30.5908 20.5607 31.447 20.3309 32.2823C20.1639 32.9297 20.686 33.5353 21.3542 33.5353H34.2806C40.5454 33.5353 44.7219 30.4029 44.7219 23.094V10.5435C44.7219 3.23452 40.5454 0.102112 34.2806 0.102112ZM23.8392 22.0289C20.9574 22.0289 18.6186 19.6901 18.6186 16.8083C18.6186 13.9265 20.9574 11.5876 23.8392 11.5876C26.7211 11.5876 29.0599 13.9265 29.0599 16.8083C29.0599 19.6901 26.7211 22.0289 23.8392 22.0289ZM38.9792 20.9848C38.9792 21.841 38.2692 22.551 37.413 22.551C36.5568 22.551 35.8468 21.841 35.8468 20.9848V12.6317C35.8468 11.7755 36.5568 11.0655 37.413 11.0655C38.2692 11.0655 38.9792 11.7755 38.9792 12.6317V20.9848Z" fill="#2447F9"/>
</svg>
