<svg width="23" height="37" viewBox="0 0 23 37" fill="none" xmlns="http://www.w3.org/2000/svg">
<path d="M13.0153 16.9781H9.79028V23.6906H13.0153V16.9781Z" fill="#E8B04B"/>
<path d="M19.6902 34.7906H3.11519C2.74019 34.7906 2.44019 34.4906 2.44019 34.1156V23.0156C2.44019 22.6406 2.74019 22.3406 3.11519 22.3406H19.6902C20.0652 22.3406 20.3652 22.6406 20.3652 23.0156V34.1156C20.3652 34.4906 20.0652 34.7906 19.6902 34.7906Z" fill="#333333"/>
<path d="M0.677856 36.5531H22.1279C22.5029 36.5531 22.8029 36.2531 22.8029 35.8781V33.7031C22.8029 33.3281 22.5029 33.0281 22.1279 33.0281H0.677856C0.302856 33.0281 0.00285618 33.3281 0.00285618 33.7031V35.8781C-0.0346438 36.2531 0.302856 36.5531 0.677856 36.5531Z" fill="#282828"/>
<path d="M12.0025 0.365625L14.9275 6.29062C15.04 6.47812 15.2275 6.62812 15.415 6.66562L21.94 7.60312C22.5025 7.67812 22.69 8.35312 22.315 8.72812L17.59 13.3406C17.44 13.4906 17.365 13.7156 17.4025 13.9406L18.5275 20.4281C18.6025 20.9906 18.04 21.4031 17.5525 21.1406L11.7025 18.0656C11.515 17.9531 11.29 17.9531 11.065 18.0656L5.21504 21.1406C4.72754 21.4031 4.16504 20.9906 4.24004 20.4281L5.36504 13.9406C5.40254 13.7156 5.32754 13.4906 5.17754 13.3406L0.490039 8.72812C0.0775393 8.35312 0.302539 7.67812 0.865039 7.60312L7.39004 6.66562C7.61504 6.62812 7.80254 6.51562 7.87754 6.29062L10.8025 0.365625C11.065 -0.121875 11.74 -0.121875 12.0025 0.365625Z" fill="#FFC54D"/>
<path d="M15.3401 30.9656H7.46514C7.20264 30.9656 7.01514 30.7781 7.01514 30.5156V25.6031C7.01514 25.3406 7.20264 25.1531 7.46514 25.1531H15.3401C15.6026 25.1531 15.7901 25.3406 15.7901 25.6031V30.5156C15.7901 30.7781 15.5651 30.9656 15.3401 30.9656Z" fill="#FFC54D"/>
</svg>
