<svg width="28" height="25" viewBox="0 0 28 25" fill="none" xmlns="http://www.w3.org/2000/svg">
<rect x="0.387695" y="13.8096" width="10.3224" height="10.3224" rx="5.1612" fill="#2447F9"/>
<path d="M6.87772 17.3845C6.87772 17.3845 6.51186 16.8895 5.64017 16.8895C3.90771 16.8895 3.90771 18.8695 5.64017 18.8695C7.37267 18.8695 7.37271 20.8495 5.64022 20.8495C4.89772 20.8495 4.40272 20.3545 4.40272 20.3545" stroke="white" stroke-width="0.66" stroke-linecap="round" stroke-linejoin="round"/>
<path d="M5.64014 16.3946V21.3446" stroke="white" stroke-width="0.66" stroke-linecap="round" stroke-linejoin="round"/>
<path d="M21.0382 0.609589H8.13156C4.25956 0.609589 1.67822 2.54559 1.67822 7.06292V11.6577C1.67822 12.1352 2.16868 12.4321 2.5946 12.2385C3.85945 11.6577 5.3179 11.4383 6.8538 11.7093C10.2483 12.3159 12.7392 15.4652 12.6489 18.9112C12.636 19.4533 12.5585 19.9825 12.4166 20.4988C12.3133 20.8989 12.636 21.2732 13.049 21.2732H21.0382C24.9102 21.2732 27.4916 19.3372 27.4916 14.8198V7.06292C27.4916 2.54559 24.9102 0.609589 21.0382 0.609589ZM14.5849 14.1616C12.8038 14.1616 11.3582 12.716 11.3582 10.9349C11.3582 9.1538 12.8038 7.70825 14.5849 7.70825C16.366 7.70825 17.8116 9.1538 17.8116 10.9349C17.8116 12.716 16.366 14.1616 14.5849 14.1616ZM23.9422 13.5163C23.9422 14.0454 23.5034 14.4843 22.9742 14.4843C22.445 14.4843 22.0062 14.0454 22.0062 13.5163V8.35359C22.0062 7.82441 22.445 7.38559 22.9742 7.38559C23.5034 7.38559 23.9422 7.82441 23.9422 8.35359V13.5163Z" fill="#2447F9"/>
</svg>
