<svg width="43" height="43" viewBox="0 0 43 43" fill="none" xmlns="http://www.w3.org/2000/svg">
<path d="M12.9396 39.6846C13.8186 39.6846 14.4163 39.2275 15.4709 38.2783L21.5529 32.8819H32.8205C38.0589 32.8819 40.8711 29.9815 40.8711 24.8311V11.3662C40.8711 6.21583 38.0589 3.31543 32.8205 3.31543H10.1799C4.9592 3.31543 2.12915 6.1982 2.12915 11.3662V24.8311C2.12915 29.999 4.9592 32.8819 10.1799 32.8819H11.0236V37.4521C11.0236 38.8057 11.7268 39.6846 12.9396 39.6846ZM13.6603 36.4678V31.3702C13.6603 30.4209 13.3088 30.0517 12.342 30.0517H10.1975C6.62915 30.0517 4.9592 28.2412 4.9592 24.8135V11.3662C4.9592 7.9385 6.62915 6.14548 10.1975 6.14548H32.8205C36.3711 6.14548 38.0412 7.9385 38.0412 11.3662V24.8135C38.0412 28.2412 36.3711 30.0517 32.8205 30.0517H21.43C20.4631 30.0517 19.9534 30.1924 19.2853 30.8779L13.6603 36.4678ZM13.4319 17.2725C13.4319 19.2061 14.6271 20.7002 16.5608 20.7002C17.2638 20.7002 17.967 20.5771 18.4065 20.0323H18.5471C17.9142 21.4209 16.6311 22.3174 15.5236 22.5987C14.8908 22.7744 14.6975 23.0557 14.6975 23.46C14.6975 23.8994 15.049 24.2334 15.5413 24.2334C17.2639 24.2334 20.6916 22.1944 20.6916 17.9053C20.6916 15.6025 19.1975 13.8271 17.0002 13.8271C14.9611 13.8271 13.4319 15.251 13.4319 17.2725ZM22.5725 17.2725C22.5725 19.2061 23.7678 20.7002 25.7013 20.7002C26.4045 20.7002 27.1076 20.5771 27.5471 20.0323H27.6877C27.0549 21.4209 25.7717 22.3174 24.6642 22.5987C24.0315 22.7744 23.8381 23.0557 23.8381 23.46C23.8381 23.8994 24.1896 24.2334 24.6819 24.2334C26.4045 24.2334 29.8498 22.1944 29.8498 17.9053C29.8498 15.6025 28.3381 13.8271 26.1408 13.8271C24.1017 13.8271 22.5725 15.251 22.5725 17.2725Z" fill="white"/>
</svg>
